<svg width="24" height="24" viewBox="0 0 24 24" fill="none" xmlns="http://www.w3.org/2000/svg">
<g clip-path="url(#clip0_3_2)">
<path d="M23.987 12C23.9868 11.6594 23.9141 11.3227 23.7738 11.0124C23.6334 10.702 23.4286 10.4251 23.173 10.2L11.994 0.361C11.7052 0.124609 11.3359 0.00955667 10.964 0.0400905C10.5921 0.0706243 10.2465 0.244359 10.0001 0.52468C9.7538 0.805001 9.6259 1.17001 9.6434 1.54279C9.6609 1.91557 9.82243 2.26699 10.094 2.523L18.731 10.123C18.7688 10.1566 18.7956 10.2009 18.8078 10.2501C18.8199 10.2992 18.8168 10.3509 18.7989 10.3983C18.781 10.4457 18.7492 10.4865 18.7076 10.5154C18.666 10.5443 18.6166 10.5598 18.566 10.56H1.45196C1.07005 10.56 0.703781 10.7117 0.433729 10.9818C0.163677 11.2518 0.0119629 11.6181 0.0119629 12C0.0119629 12.3819 0.163677 12.7482 0.433729 13.0182C0.703781 13.2883 1.07005 13.44 1.45196 13.44H18.563C18.6136 13.4405 18.6629 13.4563 18.7044 13.4853C18.7458 13.5143 18.7776 13.5551 18.7954 13.6025C18.8133 13.6499 18.8164 13.7015 18.8043 13.7507C18.7923 13.7999 18.7657 13.8442 18.728 13.878L10.091 21.478C9.93991 21.6 9.8151 21.7513 9.72402 21.9228C9.63294 22.0943 9.57749 22.2824 9.56099 22.4759C9.54449 22.6693 9.56728 22.8641 9.62801 23.0486C9.68873 23.233 9.78613 23.4032 9.91434 23.5491C10.0425 23.6949 10.1989 23.8133 10.3741 23.8971C10.5492 23.9809 10.7395 24.0285 10.9335 24.0369C11.1275 24.0453 11.3211 24.0144 11.5029 23.946C11.6846 23.8776 11.8506 23.7732 11.991 23.639L23.172 13.8C23.4278 13.575 23.6328 13.2981 23.7733 12.9878C23.9138 12.6774 23.9867 12.3407 23.987 12Z" fill="black"/>
</g>
<defs>
<clipPath id="clip0_3_2">
<rect width="24" height="24" fill="white"/>
</clipPath>
</defs>
</svg>
