<svg width="50" height="50" viewBox="0 0 50 50" fill="none" xmlns="http://www.w3.org/2000/svg">
<g clip-path="url(#clip0_57_72)">
<path fill-rule="evenodd" clip-rule="evenodd" d="M10.4062 5.12498C9.55625 6.79685 9.4125 8.90623 9.39062 12.5937C10.925 12.5094 12.7344 12.5093 14.8906 12.5093H25.7656C28.2812 12.5093 30.3594 12.5093 32.0469 12.6468C33.8031 12.7906 35.4219 13.0969 36.9219 13.8719C37.9156 14.3802 38.8219 15.0052 39.6406 15.7469C40.0375 15.9031 40.3531 16.2218 40.5125 16.6218C41.2521 17.4364 41.8771 18.3427 42.3875 19.3406C43.1594 20.8531 43.4688 22.4656 43.6125 24.2156C43.75 25.9031 43.75 27.9968 43.75 30.4968V33.8093C44.1409 33.6955 44.5198 33.5438 44.8813 33.3562C46.641 32.4542 48.073 31.0222 48.975 29.2625C50 27.2562 50 24.6375 50 19.3875V15.0125C50 9.76248 50 7.13748 48.9781 5.13748C48.0761 3.3777 46.6441 1.94572 44.8844 1.04373C42.8781 0.0218506 40.2594 0.0218506 35.0094 0.0218506H24.3844C19.1344 0.0218506 16.5094 0.0218506 14.5094 1.04373C12.7496 1.94572 11.3176 3.3777 10.4156 5.13748L10.4062 5.12498ZM20.3125 6.25623C19.8981 6.25623 19.5007 6.42085 19.2076 6.71387C18.9146 7.0069 18.75 7.40432 18.75 7.81873C18.75 8.23313 18.9146 8.63055 19.2076 8.92358C19.5007 9.21661 19.8981 9.38123 20.3125 9.38123H39.0625C39.4769 9.38123 39.8743 9.21661 40.1674 8.92358C40.4604 8.63055 40.625 8.23313 40.625 7.81873C40.625 7.40432 40.4604 7.0069 40.1674 6.71387C39.8743 6.42085 39.4769 6.25623 39.0625 6.25623H20.3125Z" fill="black"/>
<mask id="mask0_57_72" style="mask-type:luminance" maskUnits="userSpaceOnUse" x="0" y="15" width="41" height="35">
<path d="M9.375 26.5625C9.375 26.1481 9.53962 25.7507 9.83265 25.4576C10.1257 25.1646 10.5231 25 10.9375 25H29.6875C30.1019 25 30.4993 25.1646 30.7924 25.4576C31.0854 25.7507 31.25 26.1481 31.25 26.5625C31.25 26.9769 31.0854 27.3743 30.7924 27.6674C30.4993 27.9604 30.1019 28.125 29.6875 28.125H10.9375C10.5231 28.125 10.1257 27.9604 9.83265 27.6674C9.53962 27.3743 9.375 26.9769 9.375 26.5625ZM9.375 32.8125C9.375 32.3981 9.53962 32.0007 9.83265 31.7076C10.1257 31.4146 10.5231 31.25 10.9375 31.25H29.6875C30.1019 31.25 30.4993 31.4146 30.7924 31.7076C31.0854 32.0007 31.25 32.3981 31.25 32.8125C31.25 33.2269 31.0854 33.6243 30.7924 33.9174C30.4993 34.2104 30.1019 34.375 29.6875 34.375H10.9375C10.5231 34.375 10.1257 34.2104 9.83265 33.9174C9.53962 33.6243 9.375 33.2269 9.375 32.8125ZM9.375 39.0625C9.375 38.6481 9.53962 38.2507 9.83265 37.9576C10.1257 37.6646 10.5231 37.5 10.9375 37.5H20.3125C20.7269 37.5 21.1243 37.6646 21.4174 37.9576C21.7104 38.2507 21.875 38.6481 21.875 39.0625C21.875 39.4769 21.7104 39.8743 21.4174 40.1674C21.1243 40.4604 20.7269 40.625 20.3125 40.625H10.9375C10.5231 40.625 10.1257 40.4604 9.83265 40.1674C9.53962 39.8743 9.375 39.4769 9.375 39.0625Z" fill="white"/>
<path fill-rule="evenodd" clip-rule="evenodd" d="M1.02188 20.75C0 22.7563 0 25.375 0 30.625V35C0 40.25 0 42.875 1.02188 44.875C1.92387 46.6348 3.35585 48.0668 5.11563 48.9688C7.12188 49.9907 9.74063 49.9907 14.9906 49.9907H25.6156C30.8656 49.9907 33.4906 49.9907 35.4906 48.9688C37.2529 48.0703 38.6859 46.6373 39.5844 44.875C40.6063 42.8688 40.6063 40.25 40.6063 35V30.625C40.6063 25.375 40.6063 22.75 39.5844 20.75C38.6859 18.9877 37.2529 17.5548 35.4906 16.6563C33.4844 15.6344 30.8656 15.6344 25.6156 15.6344H14.9906C9.74063 15.6344 7.11563 15.6344 5.11563 16.6563C3.35585 17.5583 1.92387 18.9903 1.02188 20.75ZM3.125 30.625C3.125 27.9469 3.125 26.125 3.24375 24.7188C3.35313 23.35 3.55625 22.6469 3.80625 22.1594C4.40625 20.9844 5.3625 20.0282 6.5375 19.4282C7.025 19.1782 7.725 18.975 9.09688 18.8657C10.5031 18.75 12.3156 18.7469 15.0031 18.7469H25.6281C28.3063 18.7469 30.1281 18.75 31.5344 18.8657C32.9031 18.9782 33.6063 19.1813 34.0938 19.4282C35.2688 20.0282 36.225 20.9844 36.825 22.1594C37.075 22.6469 37.2781 23.35 37.3875 24.7188C37.5 26.125 37.5 27.9375 37.5 30.625V35C37.5 37.6782 37.5 39.5 37.3844 40.9063C37.2719 42.275 37.0688 42.9782 36.8219 43.4657C36.2227 44.6416 35.2666 45.5977 34.0906 46.1969C33.6031 46.4469 32.9 46.65 31.5281 46.7594C30.1219 46.875 28.3094 46.8782 25.6219 46.8782H15C12.325 46.8782 10.5 46.875 9.09375 46.7594C7.72813 46.6469 7.025 46.4438 6.5375 46.1969C5.36154 45.5977 4.40545 44.6416 3.80625 43.4657C3.55625 42.9782 3.35313 42.275 3.24375 40.9063C3.125 39.5 3.125 37.6875 3.125 35V30.625Z" fill="white"/>
</mask>
<g mask="url(#mask0_57_72)">
<path d="M0.121872 24.4688C-0.00312781 26.0313 -0.00312805 28 -0.00312805 30.625H6.24687C6.24687 27.8938 6.24687 26.2188 6.35 24.9688L0.131247 24.4594L0.121872 24.4688ZM1.01562 20.75C0.503122 21.7531 0.249997 22.9125 0.121872 24.4688L6.34062 24.9781C6.3875 24.3938 6.45 24.0406 6.49687 23.8281L6.55312 23.6313L6.575 23.5813L1.0125 20.7438L1.01562 20.75ZM5.10937 16.6563C3.3496 17.5583 1.91762 18.9903 1.01562 20.75L6.57812 23.5875C6.87812 23 7.35625 22.5219 7.94375 22.2219L5.10625 16.6594L5.10937 16.6563ZM8.82812 15.7625C7.26562 15.8875 6.10937 16.1438 5.10937 16.6563L7.94687 22.2188L7.99375 22.2C8.02708 22.1875 8.09375 22.1688 8.19375 22.1438C8.40312 22.0938 8.75625 22.0313 9.34375 21.9875L8.83437 15.7688L8.82812 15.7625ZM14.9844 15.6375C12.3594 15.6375 10.3906 15.6375 8.82812 15.7625L9.3375 21.9813C10.5875 21.8781 12.2562 21.875 14.9937 21.875V15.625L14.9844 15.6375ZM25.6094 15.6375H14.9844V21.8875H25.6094V15.6375ZM31.7656 15.7625C30.2031 15.6375 28.2344 15.6375 25.6094 15.6375V21.8875C28.3406 21.8875 30.0156 21.8875 31.2656 21.9907L31.775 15.7719L31.7656 15.7625ZM35.4844 16.6563C34.4812 16.1438 33.3219 15.8907 31.7656 15.7625L31.2562 21.9813C31.8406 22.0281 32.1937 22.0906 32.4062 22.1375L32.6031 22.1938L32.6531 22.2157L35.4906 16.6531L35.4844 16.6563ZM39.5781 20.75C38.6796 18.9877 37.2467 17.5548 35.4844 16.6563L32.6469 22.2188C33.2344 22.5188 33.7125 22.9969 34.0125 23.5844L39.5781 20.75ZM40.4719 24.4688C40.3469 22.9063 40.0906 21.75 39.5781 20.75L34.0156 23.5875L34.0344 23.6344C34.0469 23.6657 34.0656 23.7323 34.0906 23.8344C34.1406 24.0438 34.2 24.3969 34.2469 24.9844L40.4656 24.475L40.4719 24.4688ZM40.5969 30.625C40.5969 28 40.5969 26.0313 40.4719 24.4688L34.2531 24.9781C34.3563 26.2281 34.3594 27.8969 34.3594 30.6344H40.6094L40.5969 30.625ZM40.5969 35V30.625H34.3469V35H40.5969ZM40.4719 41.1563C40.5969 39.5938 40.5969 37.625 40.5969 35H34.3469C34.3469 37.7313 34.3469 39.4063 34.2437 40.6563L40.4625 41.1656L40.4719 41.1563ZM39.5781 44.875C40.0906 43.8719 40.3438 42.7125 40.4719 41.1563L34.2531 40.6469C34.2248 41.0331 34.1727 41.4172 34.0969 41.7969L34.0406 41.9938L34.0187 42.0438L39.5812 44.8813L39.5781 44.875ZM35.4844 48.9688C37.2467 48.0703 38.6796 46.6373 39.5781 44.875L34.0156 42.0375C33.716 42.6255 33.238 43.1035 32.65 43.4031L35.4844 48.9688ZM31.7656 49.8625C33.3281 49.7375 34.4844 49.4813 35.4844 48.9688L32.6469 43.4063L32.6 43.425L32.4 43.4813C32.0203 43.5571 31.6362 43.6092 31.25 43.6375L31.7594 49.8563L31.7656 49.8625ZM25.6094 49.9875C28.2344 49.9875 30.2031 49.9875 31.7656 49.8625L31.2562 43.6438C30.0062 43.7469 28.3375 43.75 25.6 43.75V50L25.6094 49.9875ZM14.9844 49.9875H25.6094V43.7375H14.9844V49.9875ZM8.82812 49.8625C10.3906 49.9875 12.3594 49.9875 14.9844 49.9875V43.7375C12.2531 43.7375 10.5781 43.7375 9.32812 43.6344L8.81875 49.8531L8.82812 49.8625ZM5.10937 48.9688C6.1125 49.4813 7.27187 49.7344 8.82812 49.8625L9.3375 43.6438C8.9513 43.6155 8.56723 43.5633 8.1875 43.4875L7.99062 43.4313L7.94062 43.4094L5.10312 48.9719L5.10937 48.9688ZM1.01562 44.875C1.91762 46.6348 3.3496 48.0668 5.10937 48.9688L7.94687 43.4063C7.35889 43.1067 6.88085 42.6286 6.58125 42.0406L1.01875 44.8782L1.01562 44.875ZM0.121872 41.1563C0.246872 42.7188 0.503122 43.875 1.01562 44.875L6.57812 42.0375L6.55937 41.9907L6.50312 41.7906C6.42734 41.4109 6.37516 41.0268 6.34687 40.6406L0.128122 41.15L0.121872 41.1563ZM-0.00312805 35C-0.00312805 37.625 -0.00312781 39.5938 0.121872 41.1563L6.34062 40.6469C6.2375 39.3969 6.23437 37.7281 6.23437 34.9906H-0.0156279L-0.00312805 35ZM-0.00312805 30.625V35H6.24687V30.625H-0.00312805ZM3.12187 30.625C3.12187 27.9469 3.12187 26.125 3.2375 24.7188C3.35 23.35 3.55 22.6469 3.8 22.1594L-1.7625 19.3219C-2.53438 20.8375 -2.84375 22.4469 -2.9875 24.1969C-3.12813 25.9156 -3.125 28.0406 -3.125 30.6031H3.125L3.12187 30.625ZM3.12187 35V30.625H-3.12813V35H3.12187ZM3.8 43.4688C3.55 42.9813 3.34687 42.2781 3.2375 40.9094C3.125 39.5031 3.125 37.6906 3.125 35.0031H-3.125C-3.125 37.5781 -3.12813 39.6907 -2.9875 41.4094C-2.84375 43.1656 -2.5375 44.7844 -1.7625 46.2844L3.8 43.4469V43.4688ZM6.53125 46.2C5.35529 45.6008 4.3992 44.6447 3.8 43.4688L-1.7625 46.3063C-0.565628 48.6594 1.34687 50.5563 3.70625 51.775L6.54375 46.2125L6.53125 46.2ZM15 46.8813C12.3219 46.8813 10.5 46.8813 9.09375 46.7625C7.725 46.6531 7.01875 46.45 6.53125 46.2L3.69687 51.7625C5.2125 52.5344 6.82187 52.8438 8.57187 52.9875C10.2906 53.1281 12.4156 53.1281 14.9781 53.1281V46.8782L15 46.8813ZM25.625 46.8813H15V53.1313H25.625V46.8813ZM34.0937 46.2C33.6062 46.45 32.9062 46.6531 31.5344 46.7625C30.1281 46.8781 28.3156 46.8813 25.6281 46.8813V53.1313C28.2031 53.1313 30.3156 53.1313 32.0344 52.9907C33.7906 52.8469 35.4094 52.5406 36.9094 51.7657L34.0719 46.2031L34.0937 46.2ZM36.825 43.4688C36.2258 44.6447 35.2697 45.6008 34.0937 46.2L36.9312 51.7625C39.2826 50.5583 41.1958 48.6452 42.4 46.2938L36.8375 43.4563L36.825 43.4688ZM37.5062 35C37.5062 37.6781 37.5062 39.5 37.3875 40.9063C37.2781 42.275 37.075 42.9813 36.825 43.4688L42.3875 46.3032C43.1625 44.7875 43.4719 43.1781 43.6156 41.4281C43.7531 39.7094 43.7531 37.5844 43.7531 35.0219H37.5031L37.5062 35ZM37.5062 30.625V35H43.7562V30.625H37.5062ZM36.825 22.1563C37.075 22.6438 37.2781 23.3469 37.3875 24.7156C37.5031 26.1219 37.5062 27.9344 37.5062 30.6219H43.7562C43.7562 28.0469 43.7562 25.9344 43.6156 24.2156C43.475 22.4594 43.1656 20.8406 42.3906 19.3407L36.8281 22.1782L36.825 22.1563ZM34.0937 19.425C35.2687 20.025 36.225 20.9813 36.825 22.1563L42.3875 19.3188C41.1833 16.9674 39.2701 15.0542 36.9187 13.85L34.0812 19.4125L34.0937 19.425ZM25.625 18.7438C28.3031 18.7438 30.125 18.7438 31.5312 18.8625C32.9 18.9719 33.6031 19.175 34.0937 19.425L36.9281 13.8625C35.4125 13.0906 33.8031 12.7813 32.0531 12.6375C30.3344 12.4969 28.2094 12.4969 25.6469 12.4969V18.7469L25.625 18.7438ZM15 18.7438H25.625V12.4938H15V18.7438ZM6.53125 19.425C7.01875 19.175 7.72187 18.9719 9.09375 18.8625C10.5 18.7469 12.3125 18.7438 15 18.7438V12.4938C12.4219 12.4938 10.3125 12.4938 8.59375 12.6344C6.83437 12.775 5.21875 13.0844 3.71875 13.8594L6.55312 19.4219L6.53125 19.425ZM3.8 22.1594C4.4 20.9844 5.35625 20.025 6.53125 19.425L3.69375 13.8625C1.34236 15.0667 -0.5708 16.9799 -1.775 19.3313L3.7875 22.1688L3.8 22.1594ZM10.925 21.8688C10.3094 21.8688 9.69988 21.99 9.13117 22.2256C8.56246 22.4612 8.04571 22.8064 7.61043 23.2417C7.17516 23.677 6.82988 24.1937 6.59431 24.7624C6.35874 25.3312 6.2375 25.9407 6.2375 26.5563H12.4875C12.4875 26.9707 12.3229 27.3681 12.0299 27.6611C11.7368 27.9542 11.3394 28.1188 10.925 28.1188V21.8688ZM29.675 21.8688H10.925V28.1188H29.675V21.8688ZM34.3625 26.5563C34.3625 25.3131 33.8686 24.1208 32.9896 23.2417C32.1105 22.3626 30.9182 21.8688 29.675 21.8688V28.1188C29.2606 28.1188 28.8632 27.9542 28.5701 27.6611C28.2771 27.3681 28.1125 26.9707 28.1125 26.5563H34.3625ZM29.675 31.2438C30.9182 31.2438 32.1105 30.7499 32.9896 29.8708C33.8686 28.9918 34.3625 27.7995 34.3625 26.5563H28.1125C28.1125 26.1419 28.2771 25.7444 28.5701 25.4514C28.8632 25.1584 29.2606 24.9938 29.675 24.9938V31.2438ZM10.925 31.2438H29.675V24.9938H10.925V31.2438ZM6.2375 26.5563C6.2375 27.7995 6.73136 28.9918 7.61043 29.8708C8.48951 30.7499 9.6818 31.2438 10.925 31.2438V24.9938C11.3394 24.9938 11.7368 25.1584 12.0299 25.4514C12.3229 25.7444 12.4875 26.1419 12.4875 26.5563H6.2375ZM10.925 28.1188C9.6818 28.1188 8.48951 28.6126 7.61043 29.4917C6.73136 30.3708 6.2375 31.5631 6.2375 32.8063H12.4875C12.4875 33.2207 12.3229 33.6181 12.0299 33.9111C11.7368 34.2042 11.3394 34.3688 10.925 34.3688V28.1188ZM29.675 28.1188H10.925V34.3688H29.675V28.1188ZM34.3625 32.8063C34.3625 31.5631 33.8686 30.3708 32.9896 29.4917C32.1105 28.6126 30.9182 28.1188 29.675 28.1188V34.3688C29.2606 34.3688 28.8632 34.2042 28.5701 33.9111C28.2771 33.6181 28.1125 33.2207 28.1125 32.8063H34.3625ZM29.675 37.4938C30.9182 37.4938 32.1105 36.9999 32.9896 36.1208C33.8686 35.2418 34.3625 34.0495 34.3625 32.8063H28.1125C28.1125 32.3919 28.2771 31.9944 28.5701 31.7014C28.8632 31.4084 29.2606 31.2438 29.675 31.2438V37.4938ZM10.925 37.4938H29.675V31.2438H10.925V37.4938ZM6.2375 32.8063C6.2375 34.0495 6.73136 35.2418 7.61043 36.1208C8.48951 36.9999 9.6818 37.4938 10.925 37.4938V31.2438C11.3394 31.2438 11.7368 31.4084 12.0299 31.7014C12.3229 31.9944 12.4875 32.3919 12.4875 32.8063H6.2375ZM10.925 34.3688C9.6818 34.3688 8.48951 34.8626 7.61043 35.7417C6.73136 36.6208 6.2375 37.8131 6.2375 39.0563H12.4875C12.4875 39.4707 12.3229 39.8681 12.0299 40.1611C11.7368 40.4542 11.3394 40.6188 10.925 40.6188V34.3688ZM20.3 34.3688H10.925V40.6188H20.3V34.3688ZM24.9875 39.0563C24.9875 37.8131 24.4936 36.6208 23.6146 35.7417C22.7355 34.8626 21.5432 34.3688 20.3 34.3688V40.6188C19.8856 40.6188 19.4882 40.4542 19.1951 40.1611C18.9021 39.8681 18.7375 39.4707 18.7375 39.0563H24.9875ZM20.3 43.7438C21.5432 43.7438 22.7355 43.2499 23.6146 42.3708C24.4936 41.4918 24.9875 40.2995 24.9875 39.0563H18.7375C18.7375 38.6419 18.9021 38.2444 19.1951 37.9514C19.4882 37.6584 19.8856 37.4938 20.3 37.4938V43.7438ZM10.925 43.7438H20.3V37.4938H10.925V43.7438ZM6.2375 39.0563C6.2375 40.2995 6.73136 41.4918 7.61043 42.3708C8.48951 43.2499 9.6818 43.7438 10.925 43.7438V37.4938C11.3394 37.4938 11.7368 37.6584 12.0299 37.9514C12.3229 38.2444 12.4875 38.6419 12.4875 39.0563H6.2375Z" fill="black"/>
</g>
</g>
<defs>
<clipPath id="clip0_57_72">
<rect width="50" height="50" fill="white"/>
</clipPath>
</defs>
</svg>
