<svg width="80" height="80" viewBox="0 0 80 80" fill="none" xmlns="http://www.w3.org/2000/svg">
<path d="M15.0233 24.2334C22.71 20.3384 31.2283 18.9284 39.5933 18.7267C48.8033 18.79 58.29 20.4884 66.4433 25.5884C70.1266 27.9217 73.9 32.11 73.2633 37.3267C72.3816 43.3067 67.4633 46.9834 63.0216 49.485C52.1466 55.1084 40.315 57.605 28.7883 60.8834C27.5883 61.425 25.405 61.58 27.6317 60.1617C29.1867 58.865 33.3867 56.0567 30.0267 54.235C22.9333 50.4084 14.52 49.135 8.78832 42.5384C5.14332 38.35 6.54332 31.0467 10.3517 27.605C11.7483 26.2217 13.36 25.1467 15.0233 24.2317" stroke="black" stroke-width="0.5" stroke-linecap="round" stroke-linejoin="round"/>
<path d="M28.505 44.7916C35.3883 44.4033 40.3983 44.12 46.7083 43.985C53.0183 43.85 56.09 43.9116 61.8283 44.0266" stroke="black" stroke-width="0.5" stroke-linecap="round" stroke-linejoin="round"/>
<path d="M52.495 28.0517C53.1854 28.0517 53.745 27.4921 53.745 26.8017C53.745 26.1113 53.1854 25.5517 52.495 25.5517C51.8046 25.5517 51.245 26.1113 51.245 26.8017C51.245 27.4921 51.8046 28.0517 52.495 28.0517Z" fill="black"/>
<path d="M52.495 30.8967V40.1084M41.725 39.9384V30.895M41.725 36.525C41.725 38.4017 40.19 39.9384 38.3134 39.9384C36.4367 39.9384 34.9017 38.4017 34.9017 36.525V34.3084C34.9017 32.4317 36.435 30.895 38.3134 30.895C40.1917 30.895 41.725 32.4317 41.725 34.3084M24.9967 31.0667V41.3034C24.9941 42.2077 24.6335 43.0742 23.9939 43.7134C23.3543 44.3527 22.4877 44.7128 21.5834 44.715C20.56 44.715 19.7067 44.3734 19.195 43.6917M28.7767 30.8967V40.1084M28.7767 34.3084C28.7767 32.4317 30.3134 30.8967 32.19 30.8967M56.1984 39.0834C56.8817 39.5967 57.5634 39.7667 58.9284 39.7667H59.6117C60.805 39.7667 61.8284 38.7434 61.8284 37.55C61.8284 36.3567 60.805 35.3317 59.6117 35.3317H58.075C56.8817 35.3317 55.8584 34.3084 55.8584 33.115C55.8584 31.9217 56.88 30.895 58.075 30.895H58.7584C60.2917 30.895 60.975 31.0667 61.4867 31.5784M45.2417 30.8967H48.995M47.1184 28.1667V38.4017C47.1184 39.4267 47.8017 40.1084 48.825 40.1084H49.3367M21.5834 30.8967C23.46 30.8967 24.9967 32.43 24.9967 34.3084V36.525C24.9967 38.4017 23.46 39.9384 21.5834 39.9384C19.7067 39.9384 18.1717 38.4017 18.1717 36.525V34.3084C18.1717 32.4317 19.7067 30.8967 21.5834 30.8967Z" stroke="black" stroke-width="0.5" stroke-linecap="round" stroke-linejoin="round"/>
</svg>
