<svg width="50" height="38" viewBox="0 0 50 38" fill="none" xmlns="http://www.w3.org/2000/svg">
<path d="M50 28.2904L49.455 28.0472C49.4133 28.0288 45.2492 26.151 44.2142 23.8722L43.9833 23.3675L43.5567 23.7912C43.5433 23.8045 42.9517 24.3605 41.2958 25.0129C40.07 19.71 35.9 13.3792 30.42 10.6799C31.9867 10.7762 33.5583 10.6774 35.075 10.2581C35.9883 10.006 35.5942 8.8749 34.6725 9.13077C33.4292 9.47467 32.1833 9.5684 30.94 9.52027C33.9925 7.39417 36.3892 4.13567 36.3892 1.75307C36.3892 1.18053 36.3892 0.114633 35.2725 0.114633C34.8242 0.114633 34.4617 0.327433 33.9608 0.6213C33.1925 1.0716 32.0325 1.75307 30.3283 1.75307C29.6792 1.75307 28.4908 1.23247 27.5358 0.814467C26.3817 0.3097 25.6442 0 25.0242 0C23.9975 0 22.4883 0.6308 21.1567 1.1875C20.615 1.4136 19.8742 1.72393 19.7208 1.7537C17.7908 1.7537 16.67 1.0773 15.9267 0.629533C15.4933 0.367333 15.1792 0.177333 14.76 0.177333C13.6617 0.177333 13.6617 1.17863 13.6617 2.33827C13.6617 4.57647 15.905 7.53097 18.8425 9.51647C16.9917 9.61717 15.1667 10.0421 13.8842 10.9864C13.1758 11.507 14.2492 12.3329 14.955 11.8136C16.0208 11.0282 17.4183 10.6919 18.9133 10.6267C18.9556 10.7424 19.0081 10.8564 19.0708 10.9687C12.8075 14.3893 8.35833 22.5118 8.35833 27.9952C8.35833 28.5361 8.41333 29.0257 8.49833 29.4867C6.88333 28.9414 6.29417 28.4633 6.2825 28.4525L5.8525 28.0757L5.64083 28.5507C4.705 30.6432 0.636667 32.4583 0.595833 32.4767L0 32.7395L0.605833 32.9884C0.818333 33.0758 1.02917 33.1525 1.24167 33.2354L0.858333 33.4375L1.06083 35.3628L16.9383 38L22.9583 35.0734C23.5656 35.0759 24.1817 35.0772 24.8067 35.0772L31.8433 38L47.7508 34.2V32.1676L47.33 31.9757C47.54 31.8744 47.7497 31.7707 47.9592 31.6648L48.5167 31.3817L48.3942 31.3361L49.1033 31.1885L49.2233 29.0757L48.8133 28.8547C49.0317 28.7554 49.2497 28.6535 49.4675 28.5488L50 28.2904ZM15.1775 2.33827C15.1775 2.05707 15.1825 1.83793 15.19 1.66757C15.3175 1.74357 15.4658 1.82653 15.6242 1.91203C16.11 2.79617 17.0292 4.06917 18.5875 4.87097C20.4808 5.8463 20.2292 4.7253 21.2392 3.70183C22.2492 2.679 22.9325 2.1432 24.6242 4.77407C25.3617 5.92103 26.5908 2.71573 27.7592 2.2477C28.0683 2.37563 28.3767 2.4947 28.6792 2.59603C30.7742 5.1851 31.745 4.3776 33.6058 2.22553C34.1175 1.99753 34.5375 1.75307 34.8717 1.55737C34.8733 1.61606 34.8744 1.68171 34.875 1.75433C34.875 3.78733 32.6892 6.7032 30.0125 8.6051C29.886 8.36107 29.705 8.13546 29.4775 7.9382C28.3967 7.00783 26.7075 8.03953 25.9067 8.71657C24.4858 8.3695 22.1708 7.4138 20.6625 7.961C20.2868 8.09334 19.9417 8.27108 19.6408 8.4873C17.1742 6.77857 15.1775 4.31173 15.1775 2.33827ZM28.6808 9.28847C28.3072 9.22811 27.9357 9.16053 27.5667 9.0858C28.0317 8.78117 28.4583 8.67477 28.6375 9.1276C28.6567 9.177 28.6683 9.23337 28.6808 9.28847ZM22.3475 9.68177C22.0719 9.64123 21.7883 9.6064 21.4967 9.57727C21.2754 9.47198 21.0589 9.36109 20.8475 9.24477C21.6092 8.85653 22.9225 9.063 24.1775 9.38663C23.5583 9.43413 22.9475 9.53673 22.3475 9.68177ZM22.7258 11.3538C22.2592 11.4424 21.7508 11.407 21.3117 11.274C21.49 11.2024 21.67 11.1403 21.85 11.0776C22.1417 11.1847 22.4333 11.274 22.7258 11.3538ZM7.31167 34.44C5.32403 34.0027 3.3954 33.4231 1.55167 32.7091C2.6825 32.1442 5.14583 30.7781 6.1475 29.1365C6.83417 29.5463 8.41917 30.2936 11.5058 30.8674C11.4533 30.932 11.3892 31.001 11.3275 31.0688C8.6925 30.5444 7.19417 29.8813 7.17 29.8699L6.80667 29.7052L6.6325 30.001C6.40333 30.3886 5.86583 30.4469 5.56667 30.4469C5.48333 30.4469 5.4275 30.4424 5.42 30.4418L5.1225 30.4089L5.01417 30.6255C4.7925 31.0675 3.8825 31.6451 3.54917 31.8307L2.9925 32.141L3.62917 32.3393C3.86583 32.4127 3.93 32.4805 3.93333 32.4982C3.94167 32.5419 3.84083 32.6572 3.73333 32.7237L3.24833 33.0207L3.8125 33.219C4.96833 33.6243 6.2775 33.96 7.58667 34.2367C7.48333 34.314 7.39167 34.3818 7.31167 34.44ZM14.0317 32.0802C15.1967 32.2044 16.4875 32.2829 17.8975 32.2829H17.8983C18.1911 32.2829 18.4892 32.2793 18.7925 32.2721C18.814 32.3195 18.8428 32.3648 18.8783 32.407C18.9522 32.4927 19.0525 32.5633 19.1792 32.6186L17.0525 33.9999L16.9308 33.998C15.9833 33.998 15.2767 34.2627 14.9375 34.7339C13.6525 34.6091 12.3735 34.4513 11.1025 34.2608C12.1245 33.5702 13.102 32.8425 14.0317 32.0802ZM4.57417 32.8383C4.6575 32.7186 4.71167 32.5736 4.6825 32.4153C4.65582 32.2722 4.56554 32.1403 4.42667 32.0416C4.80083 31.7978 5.31667 31.4216 5.6 31.0321C6.24417 31.0251 6.77583 30.8395 7.11083 30.5115C7.675 30.7357 8.94583 31.1885 10.8233 31.5812C10.0558 32.3127 9.02167 33.1423 8.2175 33.7592C6.96417 33.5071 5.70167 33.2031 4.57417 32.8383ZM16.45 35.504L16.2792 35.5047C15.5617 35.5047 13.1842 35.4603 10.0433 34.9632C10.1533 34.8922 10.2675 34.8194 10.3733 34.7497C12.9217 35.1544 14.9767 35.328 15.1308 35.3413L15.4358 35.366L15.53 35.1411C15.7358 34.656 16.495 34.5844 16.93 34.5844C17.0492 34.5844 17.1283 34.5901 17.1375 34.5908L17.2992 34.6041L20.9933 32.205L20.0058 32.1803C19.6758 32.1714 19.5367 32.1151 19.5025 32.0764L19.7117 31.6603L19.1333 31.6787C18.7117 31.6926 18.2997 31.6996 17.8975 31.6996C16.7342 31.6996 15.6542 31.6413 14.6567 31.5495L14.8883 31.3418C16.9017 31.5463 19.3125 31.6724 22.2233 31.6565C21.5283 32.3975 19.795 33.9726 16.45 35.504ZM24.8033 32.7522V33.908C24.3294 33.908 23.8669 33.9068 23.4158 33.9042L23.28 32.6034L22.1517 32.673C22.9117 31.9903 23.2358 31.5349 23.265 31.4938L23.5708 31.0542L22.925 31.0631C16.7433 31.1492 12.7117 30.5894 10.1667 29.9674C9.98083 29.3962 9.87333 28.7502 9.87333 27.9959C9.87333 22.8513 14.1992 15.0752 19.9425 11.9238C20.96 12.6717 22.5033 12.9992 23.97 12.2715C24.2917 12.1119 24.5717 11.9029 24.8342 11.6806C24.8967 11.6818 24.9608 11.6926 25.0242 11.6926C25.2342 11.6926 25.4475 11.6793 25.66 11.659C25.9292 11.7407 26.1925 11.8231 26.4367 11.9048C27.6058 12.2962 28.6042 12.053 29.2858 11.5134C34.5467 13.9327 38.7617 20.3325 39.8708 25.5056C37.4658 26.2365 33.6508 26.9496 27.7958 27.075C28.9508 26.5734 29.8175 25.7298 29.5058 24.6215C29.1783 23.4498 27.89 23.1205 26.5558 23.0666C26.5519 22.5169 26.5525 21.967 26.5575 21.4168C26.9667 21.5542 27.3592 21.7126 27.7158 21.8817C28.3458 22.1825 28.9158 21.4029 28.29 21.102C27.7473 20.8428 27.1682 20.6306 26.5633 20.4693C26.5717 19.8326 26.5758 19.1963 26.5758 18.5605C26.5767 17.9778 25.4375 17.9778 25.4375 18.5605C25.4369 19.1199 25.4331 19.6785 25.4258 20.2363C24.8195 20.156 24.2004 20.1481 23.5908 20.2128C23.4913 19.7937 23.3712 19.3775 23.2308 18.9652C23.0425 18.404 21.9425 18.6415 22.1333 19.2046C22.2733 19.6093 22.3875 20.0121 22.4817 20.4206C22.4333 20.4345 22.3808 20.4415 22.3333 20.4579C20.79 20.9222 19.8483 22.1059 20.9775 23.2098C21.5033 23.724 22.1908 23.9318 22.9433 24.0008C22.9842 24.7627 23.01 25.5252 23.0392 26.2865C22.535 26.0376 22.0758 25.7184 21.66 25.3808C21.145 24.9679 20.3408 25.6057 20.855 26.018C21.5542 26.5835 22.2883 27.011 23.0842 27.2846C23.12 27.9351 23.1708 28.5874 23.2542 29.2347C23.3275 29.8091 24.4675 29.8123 24.3933 29.2347C24.3232 28.6748 24.2712 28.1137 24.2375 27.5519C24.6708 27.6089 25.1258 27.6235 25.6092 27.5886C25.6633 28.1878 25.7267 28.7869 25.8167 29.386C25.8683 29.7293 26.3 29.8642 26.6183 29.7945L26.5475 31.0384C26.0458 31.0726 25.5342 31.1043 25.0008 31.1309L24.3658 31.1625L24.7042 31.578C24.7383 31.6198 25.1225 32.0815 25.98 32.7535H24.8033V32.7522ZM45.5433 28.5836C44.4958 28.9579 43.1708 29.3012 41.8208 29.6007C40.9908 28.949 39.9292 28.0795 39.1367 27.3081C40.9025 26.9015 41.8908 26.4822 42.3367 26.2561C42.6892 26.4923 43.1558 26.6152 43.7083 26.6146C43.8917 26.6146 44.0542 26.6013 44.1792 26.5861C44.5792 26.98 45.2242 27.4347 45.6275 27.7064C45.4364 27.8555 45.3444 28.0193 45.3517 28.1979C45.3583 28.3499 45.4383 28.4791 45.5433 28.5836ZM39.5808 30.6647C39.7514 30.7787 39.9264 30.8948 40.1058 31.0131C36.7275 31.6939 34.2133 31.768 33.6658 31.775C30.1675 30.153 28.3542 28.4367 27.655 27.664C30.5825 27.6083 33.0025 27.4069 35.0208 27.1295C35.1029 27.2061 35.186 27.2821 35.27 27.3575C33.6478 27.5496 32.0128 27.6729 30.3725 27.7267L29.7 27.7482L30.07 28.1783C30.0692 28.1789 29.9942 28.2853 29.4975 28.3588L28.69 28.4785L32.66 30.9212L32.845 30.8832C32.8492 30.8826 33.1992 30.811 33.6225 30.811C34.2333 30.811 34.6508 30.9523 34.8608 31.2284L34.9942 31.4032L35.2533 31.3684C36.7049 31.1673 38.1481 30.9327 39.5808 30.6647ZM27.8333 28.8034L26.885 28.7641C26.8408 28.4044 26.7967 28.0446 26.7633 27.6849C26.93 27.8952 27.2717 28.2904 27.8333 28.8034ZM26.66 26.4847C26.6053 25.6322 26.5723 24.7789 26.5608 23.9254C26.6986 23.9297 26.8319 23.9387 26.9608 23.9527C28.4342 24.1224 28.8192 25.3675 27.6692 26.068C27.3692 26.2485 27.0233 26.3809 26.66 26.4847ZM35.3592 30.761C34.9858 30.4108 34.3917 30.2271 33.6233 30.2271C33.3025 30.2271 33.02 30.26 32.8417 30.2866L30.3458 28.7495C30.5525 28.6592 30.6939 28.5439 30.77 28.4037C30.7887 28.3687 30.8032 28.3324 30.8133 28.2954C32.7917 28.2131 34.4583 28.063 35.8675 27.8793C36.5508 28.4588 37.555 29.2581 38.8867 30.1872C37.2508 30.483 35.8867 30.6856 35.3592 30.761ZM25.4208 23.9482C25.4367 24.8659 25.4667 25.7862 25.5308 26.7032C25.4233 26.7159 25.3175 26.7317 25.2117 26.74C24.8533 26.771 24.5133 26.7482 24.19 26.6861C24.1492 25.7995 24.1225 24.9109 24.0783 24.0236C24.5267 24.0078 24.9808 23.9742 25.4208 23.9482ZM24.0208 23.1471C23.969 22.4511 23.8828 21.7569 23.7625 21.0659C24.3148 21.0076 24.8766 21.0293 25.4183 21.1299C25.4124 21.7774 25.411 22.4249 25.4142 23.0723C25.0483 23.0875 24.7008 23.1141 24.395 23.135C24.2705 23.1426 24.1457 23.1466 24.0208 23.1471ZM22.8775 23.0362C22.8067 23.0217 22.7367 23.0103 22.6642 22.9919C22.3311 22.9054 22.0294 22.7607 21.7833 22.5695C21.0717 22.0647 22.0483 21.5694 22.6642 21.3345C22.7608 21.8981 22.8275 22.4669 22.8775 23.0362ZM32.075 35.3647C28.4575 33.96 26.5167 32.3988 25.7458 31.6755C26.3 31.6439 26.8242 31.6059 27.3433 31.566L33.275 34.492L46.2833 31.7762C39.575 34.8492 32.9475 35.3172 32.075 35.3647ZM42.8183 30.3677L42.4333 30.0745C43.9133 29.7337 45.345 29.3385 46.4125 28.9041L47.0617 28.6387L46.4033 28.3841C46.2558 28.3265 46.1117 28.2207 46.1092 28.1808C46.1108 28.1656 46.1692 28.0845 46.4217 27.9743L46.9033 27.7641L46.475 27.493C46.4617 27.4848 45.1258 26.6418 44.6567 26.099L44.5017 25.9217L44.2358 25.9806C44.2333 25.9806 44.005 26.0306 43.7083 26.0306C43.25 26.0313 42.9067 25.9173 42.6867 25.6931L42.4433 25.448L42.1383 25.6475C42.1225 25.6576 41.1783 26.246 38.6458 26.802C38.5624 26.7108 38.482 26.6178 38.405 26.5234C41.4758 25.8159 43.045 24.9597 43.725 24.491C44.8167 26.2859 47.4158 27.7318 48.5442 28.2986C46.7314 29.1321 44.8132 29.8253 42.8183 30.3677Z" fill="black"/>
</svg>
