<svg width="48" height="49" viewBox="0 0 48 49" fill="none" xmlns="http://www.w3.org/2000/svg">
<g clip-path="url(#clip0_107_18)">
<path d="M1.02431 24.2069C1.02318 28.3239 2.08518 32.3438 4.10456 35.887L0.831184 47.993L13.0622 44.7446C16.4451 46.61 20.2355 47.5874 24.0872 47.5877H24.0973C36.8126 47.5877 47.1632 37.1072 47.1686 24.2253C47.1711 17.9832 44.7733 12.1134 40.4169 7.69735C36.0613 3.28165 30.2685 0.848552 24.0964 0.845703C11.3796 0.845703 1.02975 11.3256 1.0245 24.2069" fill="url(#paint0_linear_107_18)"/>
<path d="M0.200625 24.1992C0.199313 28.4643 1.29937 32.6279 3.39075 36.298L0 48.838L12.6696 45.4731C16.1604 47.401 20.0908 48.4175 24.0902 48.419H24.1005C37.272 48.419 47.9944 37.5615 48 24.2185C48.0023 17.7521 45.5182 11.6713 41.0062 7.09702C36.4937 2.52331 30.4937 0.00265891 24.1005 0C10.9267 0 0.205875 10.856 0.200625 24.1992ZM7.74581 35.6659L7.27275 34.9053C5.28412 31.7024 4.2345 28.0012 4.236 24.2007C4.24012 13.1102 13.1509 4.08713 24.108 4.08713C29.4143 4.08941 34.401 6.18464 38.1517 9.98612C41.9023 13.788 43.9661 18.8418 43.9648 24.217C43.9599 35.3075 35.049 44.3317 24.1005 44.3317H24.0926C20.5277 44.3298 17.0314 43.3601 13.9823 41.5275L13.2566 41.0916L5.73825 43.0883L7.74581 35.6659Z" fill="url(#paint1_linear_107_18)"/>
<path d="M18.1271 14.0827C17.6797 13.0755 17.2089 13.0552 16.7835 13.0375C16.4351 13.0223 16.0369 13.0235 15.639 13.0235C15.2407 13.0235 14.5937 13.1752 14.0467 13.7801C13.4992 14.3856 11.9565 15.8487 11.9565 18.8246C11.9565 21.8005 14.0964 24.6767 14.3947 25.0807C14.6934 25.4839 18.5259 31.7863 24.5957 34.2108C29.6402 36.2257 30.6667 35.825 31.7616 35.7239C32.8566 35.6233 35.2948 34.2612 35.7922 32.8487C36.2901 31.4364 36.2901 30.2259 36.1408 29.9729C35.9916 29.7209 35.5933 29.5695 34.9961 29.2671C34.3989 28.9648 31.4629 27.5012 30.9156 27.2994C30.3681 27.0977 29.97 26.997 29.5717 27.6027C29.1735 28.2074 28.0299 29.5695 27.6814 29.9729C27.3332 30.3772 26.9846 30.4276 26.3876 30.125C25.7901 29.8215 23.8669 29.1836 21.5852 27.1231C19.8099 25.5198 18.6114 23.5398 18.2631 22.9342C17.9147 22.3295 18.2257 22.0017 18.5252 21.7003C18.7935 21.4292 19.1226 20.9939 19.4214 20.6409C19.7192 20.2876 19.8186 20.0356 20.0177 19.6322C20.217 19.2284 20.1172 18.8752 19.9682 18.5726C19.8186 18.2701 18.6581 15.2786 18.1271 14.0827Z" fill="white"/>
</g>
<defs>
<linearGradient id="paint0_linear_107_18" x1="23.9999" y1="47.993" x2="23.9999" y2="0.845703" gradientUnits="userSpaceOnUse">
<stop stop-color="#1FAF38"/>
<stop offset="1" stop-color="#60D669"/>
</linearGradient>
<linearGradient id="paint1_linear_107_18" x1="24" y1="48.838" x2="24" y2="0" gradientUnits="userSpaceOnUse">
<stop stop-color="#F9F9F9"/>
<stop offset="1" stop-color="white"/>
</linearGradient>
<clipPath id="clip0_107_18">
<rect width="48" height="49" fill="white"/>
</clipPath>
</defs>
</svg>
