<svg width="94" height="39" viewBox="0 0 94 39" fill="none" xmlns="http://www.w3.org/2000/svg">
<path d="M0.624222 13.7233H4.25203V26.9273H10.9642V30.2761H0.624222V13.7233ZM12.5652 19.0622H16.0461V30.2688H12.5652V19.0622ZM14.3056 13.4883C14.7051 13.4883 15.0955 13.6067 15.4276 13.8286C15.7597 14.0505 16.0186 14.366 16.1714 14.735C16.3243 15.104 16.3643 15.5101 16.2864 15.9018C16.2084 16.2936 16.0161 16.6534 15.7337 16.9358C15.4512 17.2183 15.0914 17.4106 14.6996 17.4885C14.3079 17.5665 13.9018 17.5265 13.5328 17.3736C13.1638 17.2208 12.8484 16.9619 12.6264 16.6298C12.4045 16.2977 12.2861 15.9072 12.2861 15.5078C12.2861 14.9722 12.4989 14.4585 12.8776 14.0798C13.2563 13.7011 13.77 13.4883 14.3056 13.4883ZM30.6161 13.7233H34.097V23.6153L38.048 19.0475H42.3147L37.7469 24.2395L42.2192 30.2761H37.8423L34.1411 24.7316H34.097V30.2761H30.6161V13.7233ZM17.9775 19.0622H21.2969V20.597H21.3409C21.6758 20.0253 22.1591 19.5549 22.7396 19.2355C23.3201 18.9162 23.9762 18.7599 24.6383 18.7831C28.1706 18.7831 28.8169 21.1037 28.8169 24.122V30.2761H25.3653V24.8197C25.3653 23.5198 25.3653 21.8822 23.5514 21.8822C21.7375 21.8822 21.4584 23.2995 21.4584 24.7609V30.3055H17.9775V19.0622Z" fill="#1D1D1B"/>
<path d="M49.6511 23.3586C49.6582 23.0761 49.6077 22.795 49.5028 22.5326C49.3979 22.2701 49.2408 22.0317 49.0409 21.8318C48.841 21.632 48.6026 21.4748 48.3401 21.3699C48.0777 21.265 47.7966 21.2145 47.5141 21.2216C46.9055 21.1831 46.3062 21.3857 45.8458 21.7857C45.3854 22.1856 45.1009 22.7506 45.0539 23.3586H49.6511ZM52.5886 28.3304C52.0076 29.0266 51.2795 29.5853 50.4566 29.9663C49.6337 30.3472 48.7366 30.541 47.8298 30.5335C44.3489 30.5335 41.5583 28.2129 41.5583 24.6071C41.5583 21.0013 44.3489 18.688 47.8298 18.688C51.0831 18.688 53.1247 21.0086 53.1247 24.6071V25.7013H45.0466C45.1425 26.3238 45.4612 26.8903 45.9434 27.2955C46.4256 27.7007 47.0386 27.9171 47.6683 27.9044C48.1643 27.9037 48.6521 27.7774 49.0861 27.5373C49.5202 27.2971 49.8863 26.951 50.1505 26.5311L52.5886 28.3304ZM60.3877 21.765C59.8192 21.7475 59.2585 21.9 58.7773 22.2031C58.296 22.5061 57.9162 22.9459 57.6864 23.4661C57.4566 23.9863 57.3873 24.5633 57.4874 25.1231C57.5875 25.6829 57.8524 26.2001 58.2481 26.6085C58.6439 27.0169 59.1526 27.2979 59.709 27.4154C60.2654 27.533 60.8443 27.4818 61.3714 27.2684C61.8986 27.055 62.35 26.6891 62.668 26.2176C62.986 25.7461 63.156 25.1905 63.1563 24.6218C63.1874 24.2444 63.1372 23.8647 63.0089 23.5085C62.8806 23.1522 62.6772 22.8276 62.4126 22.5568C62.148 22.2859 61.8283 22.075 61.4752 21.9385C61.122 21.8019 60.7436 21.7427 60.3656 21.765M66.3875 30.2691H63.1563V28.8004C62.7526 29.3388 62.2309 29.7775 61.6314 30.0831C61.0318 30.3886 60.3702 30.5527 59.6974 30.5629C56.3486 30.5629 54.1455 28.1468 54.1455 24.7319C54.1455 21.5961 56.0989 18.7174 59.2861 18.7174C59.9562 18.6585 60.6307 18.7611 61.253 19.0167C61.8752 19.2723 62.4272 19.6733 62.8625 20.1861H62.9066V13.7236H66.3875V30.2691Z" fill="#1D1D1B"/>
<path d="M91.6353 10.2501H71.6089C71.1544 10.2462 70.7169 10.4225 70.3921 10.7405C70.0672 11.0584 69.8816 11.4921 69.8758 11.9466V32.0537C69.8816 32.5082 70.0672 32.9419 70.3921 33.2598C70.7169 33.5778 71.1544 33.7541 71.6089 33.7501H91.6353C91.861 33.7531 92.085 33.7115 92.2946 33.6278C92.5042 33.5441 92.6953 33.42 92.8569 33.2624C93.0186 33.1049 93.1476 32.9171 93.2366 32.7097C93.3256 32.5023 93.3729 32.2794 93.3758 32.0537V11.9466C93.3729 11.7209 93.3256 11.498 93.2366 11.2906C93.1476 11.0832 93.0186 10.8954 92.8569 10.7378C92.6953 10.5803 92.5042 10.4562 92.2946 10.3725C92.085 10.2888 91.861 10.2472 91.6353 10.2501Z" fill="#0076B2"/>
<path d="M73.3567 19.0622H76.845V30.2761H73.3567V19.0622ZM75.0972 13.4883C75.4966 13.4883 75.8871 13.6067 76.2192 13.8286C76.5513 14.0505 76.8101 14.366 76.963 14.735C77.1159 15.104 77.1558 15.5101 77.0779 15.9018C77 16.2936 76.8077 16.6534 76.5252 16.9358C76.2428 17.2183 75.8829 17.4106 75.4912 17.4885C75.0994 17.5665 74.6934 17.5265 74.3244 17.3736C73.9553 17.2208 73.6399 16.9619 73.418 16.6298C73.1961 16.2977 73.0777 15.9072 73.0777 15.5078C73.0777 14.9722 73.2904 14.4585 73.6692 14.0798C74.0479 13.7011 74.5616 13.4883 75.0972 13.4883ZM79.0261 19.0622H82.3675V20.597H82.4116C82.7464 20.0253 83.2297 19.5549 83.8102 19.2355C84.3907 18.9162 85.0468 18.7599 85.7089 18.7831C89.2413 18.7831 89.8875 21.1037 89.8875 24.122V30.2761H86.4066V24.8197C86.4066 23.5198 86.4066 21.8822 84.5927 21.8822C82.7788 21.8822 82.4997 23.2995 82.4997 24.7609V30.3055H79.0188L79.0261 19.0622Z" fill="white"/>
</svg>
