<svg width="44" height="44" viewBox="0 0 44 44" fill="none" xmlns="http://www.w3.org/2000/svg">
<path d="M40.4738 7C41.7071 8.99583 42.4175 11.3458 42.4175 13.8604C42.4175 21.1021 36.5217 26.9729 29.2509 26.9729C27.9259 26.9729 24.905 26.6688 23.4363 25.4479L21.5988 27.2771C20.0675 28.8021 21.2925 28.8021 21.905 30.0208C21.905 30.0208 23.4363 32.1563 21.905 34.2917C20.9863 35.5104 18.4134 37.2167 15.4759 34.2917L14.8634 34.9C14.8634 34.9 16.6988 37.0354 15.1696 39.1708C14.2509 40.3896 11.8009 41.6083 9.65712 39.475L7.51545 41.6083C6.04462 43.0729 4.24878 42.2188 3.53628 41.6083L1.6967 39.7792C-0.0178831 38.0708 0.982117 36.2208 1.6967 35.5083L17.6175 19.6542C17.6175 19.6542 16.0863 17.2167 16.0863 13.8625C16.0863 6.62083 21.9821 0.75 29.253 0.75C30.9592 0.75 32.5884 1.07292 34.0842 1.66042" stroke="black" stroke-width="1.5" stroke-linecap="round" stroke-linejoin="round"/>
<path d="M33.8446 13.8625C33.8418 15.0777 33.3566 16.2421 32.4955 17.0996C31.6345 17.9571 30.4681 18.4376 29.2529 18.4354C28.651 18.4368 28.0548 18.3196 27.4982 18.0905C26.9416 17.8614 26.4355 17.525 26.009 17.1003C25.5824 16.6757 25.2436 16.1712 25.012 15.6157C24.7805 15.0601 24.6605 14.4644 24.6592 13.8625C24.6603 13.2604 24.78 12.6645 25.0115 12.1087C25.2429 11.5529 25.5816 11.0481 26.0082 10.6233C26.4348 10.1984 26.941 9.86178 27.4977 9.63258C28.0544 9.40338 28.6509 9.28612 29.2529 9.28749C29.8548 9.28639 30.451 9.40386 31.0075 9.63318C31.564 9.8625 32.0699 10.1992 32.4963 10.624C32.9227 11.0488 33.2612 11.5535 33.4925 12.1092C33.7239 12.6648 33.8435 13.2606 33.8446 13.8625Z" stroke="black" stroke-width="1.5"/>
</svg>
