<svg width="50" height="50" viewBox="0 0 50 50" fill="none" xmlns="http://www.w3.org/2000/svg">
<path fill-rule="evenodd" clip-rule="evenodd" d="M20.3042 38.0959C19.4528 37.9084 18.6195 37.6584 17.8042 37.3459C17.0092 37.0475 16.2491 36.6633 15.5375 36.2C14.2997 35.4147 13.2729 34.3382 12.547 33.0646C11.821 31.791 11.4179 30.3591 11.3729 28.8938C11.2779 25.9425 12.197 23.0477 13.9771 20.6917C15.1115 19.1111 16.5831 17.8024 18.2854 16.8605C20.0081 15.9491 21.9004 15.403 23.8438 15.2563C26.4274 15.1069 28.9969 15.7326 31.2225 17.0533C33.4482 18.374 35.2286 20.3294 36.3354 22.6688C36.9955 23.7745 37.4248 25.0024 37.5973 26.2785C37.7699 27.5546 37.6823 28.8524 37.3396 30.0937C36.997 31.335 36.4065 32.494 35.6037 33.5009C34.8009 34.5078 33.8025 35.3416 32.6688 35.9521C32.5748 36.0059 32.4926 36.078 32.4269 36.164C32.3611 36.2501 32.3133 36.3484 32.2861 36.4532C32.259 36.558 32.253 36.6672 32.2686 36.7744C32.2842 36.8815 32.3211 36.9844 32.3771 37.0771C32.4289 37.1704 32.499 37.2522 32.5832 37.3177C32.6673 37.3832 32.7639 37.431 32.867 37.4582C32.9702 37.4855 33.0777 37.4916 33.1833 37.4762C33.2888 37.4608 33.3902 37.4243 33.4813 37.3688C40.1646 33.7021 40.9354 27.1459 38.4167 21.6688C37.1511 18.8831 35.0955 16.5302 32.5049 14.9022C29.9143 13.2741 26.9027 12.4425 23.8438 12.5104C21.4996 12.6653 19.2181 13.3331 17.1604 14.4667C14.6157 15.9015 12.538 18.0388 11.1758 20.6231C9.81366 23.2074 9.22463 26.1294 9.47917 29.0396C9.57852 30.7789 10.0959 32.4686 10.9873 33.9653C11.8788 35.4621 13.118 36.7217 14.6 37.6375C15.4333 38.1181 16.3083 38.507 17.225 38.8042C18.107 39.1098 19.0083 39.3459 19.9292 39.5125C20.1224 39.5495 20.3224 39.509 20.486 39.3999C20.6497 39.2908 20.764 39.1218 20.8042 38.9292C20.8378 38.7531 20.8055 38.5708 20.7132 38.4171C20.621 38.2634 20.4754 38.149 20.3042 38.0959Z" fill="black"/>
<path fill-rule="evenodd" clip-rule="evenodd" d="M24.8021 35.0146C25.7434 34.8288 26.6209 34.4036 27.3499 33.7799C28.079 33.1563 28.6351 32.3553 28.9646 31.4542C29.0185 31.3606 29.0528 31.2569 29.0652 31.1496C29.0775 31.0423 29.0678 30.9335 29.0366 30.8301C29.0054 30.7266 28.9533 30.6307 28.8836 30.5481C28.8139 30.4656 28.728 30.3982 28.6313 30.3501C28.5376 30.2961 28.434 30.2619 28.3266 30.2495C28.2193 30.2371 28.1106 30.2468 28.0071 30.2781C27.9037 30.3093 27.8077 30.3614 27.7252 30.4311C27.6426 30.5008 27.5752 30.5866 27.5271 30.6834C27.1217 31.3022 26.5404 31.7857 25.858 32.0715C25.1757 32.3574 24.4234 32.4326 23.6979 32.2876C23.2695 32.2377 22.8494 32.1327 22.4479 31.9751C21.3695 31.6309 20.4382 30.9337 19.8042 29.9959C19.7699 29.8952 19.7134 29.8036 19.6388 29.7277C19.5643 29.6519 19.4736 29.5938 19.3736 29.5577C19.2735 29.5217 19.1666 29.5087 19.0608 29.5196C18.9551 29.5306 18.8531 29.5652 18.7625 29.6209C18.586 29.6986 18.4474 29.843 18.3771 30.0226C18.3068 30.2022 18.3106 30.4024 18.3875 30.5792C18.8229 32.1417 19.825 33.4876 21.2 34.3501C21.8375 34.7209 22.5458 34.9542 23.2813 35.0355C23.7882 35.1049 24.2951 35.098 24.8021 35.0146Z" fill="black"/>
<path fill-rule="evenodd" clip-rule="evenodd" d="M49.7625 25.9375C49.6339 25.3848 49.4307 24.8521 49.1583 24.3542C48.6663 23.4799 47.9976 22.7175 47.1949 22.1157C46.3922 21.5138 45.473 21.0856 44.4958 20.8584C44.3356 19.6339 44.0849 18.4229 43.7458 17.2354C42.9747 14.5718 41.6304 12.109 39.8073 10.0196C37.9842 7.93012 35.7262 6.26457 33.1917 5.13961C30.5108 4.12604 27.6519 3.66802 24.7886 3.79337C21.9253 3.91871 19.1174 4.62482 16.5354 5.86878C13.8797 6.95519 11.5318 8.67796 9.69862 10.8854C7.86543 13.0927 6.60313 15.717 6.0229 18.5271C6.0229 19.0271 6.0229 19.5271 5.8979 20.0271C4.83905 20.2247 3.83753 20.6558 2.96615 21.2889C2.09477 21.9221 1.37542 22.7415 0.8604 23.6875C0.588177 24.1875 0.386789 24.7153 0.256233 25.2709C-0.0844344 26.4254 -0.0844344 27.6538 0.256233 28.8084C0.566554 29.6788 1.08886 30.4583 1.77595 31.0762C2.46305 31.6942 3.29328 32.1313 4.19165 32.3479C4.60415 32.4785 5.02776 32.5688 5.46248 32.6188C5.88471 32.6604 6.30762 32.6604 6.73123 32.6188C6.92196 32.6122 7.10465 32.5403 7.24874 32.4151C7.39284 32.29 7.48962 32.1192 7.5229 31.9313C7.6074 31.9719 7.69997 31.993 7.79373 31.993C7.8875 31.993 7.98006 31.9719 8.06457 31.9313C8.19209 31.8737 8.29972 31.7797 8.37388 31.6611C8.44803 31.5424 8.48539 31.4045 8.48123 31.2646C7.99359 29.2135 7.68685 27.1235 7.56457 25.0188C7.4479 22.9625 7.59373 20.8979 8.00207 18.8771C8.65634 16.4813 9.87449 14.2769 11.5547 12.4481C13.235 10.6192 15.3285 9.21909 17.6604 8.36461C19.9203 7.28205 22.3742 6.66345 24.8772 6.54537C27.3803 6.42729 29.8816 6.81211 32.2333 7.67711C34.4473 8.60948 36.4352 10.0066 38.0623 11.7739C39.6894 13.5413 40.9179 15.6375 41.6646 17.9209C43.2373 22.6758 43.0973 27.8312 41.2687 32.4938C41.2283 32.5936 41.2081 32.7004 41.2092 32.808C41.2104 32.9157 41.233 33.022 41.2756 33.1209C41.3183 33.2198 41.3802 33.3092 41.4577 33.3839C41.5351 33.4586 41.6267 33.5172 41.7271 33.5563C41.8555 33.5992 41.9944 33.5992 42.1229 33.5563C41.5442 34.7671 40.8463 35.9172 40.0396 36.9896C39.2687 38.0334 38.3687 38.9709 37.3541 39.7813C35.7969 41.1847 33.7875 41.9824 31.6916 42.0292C31.599 41.8611 31.4499 41.7313 31.2707 41.6626C31.0914 41.594 30.8937 41.591 30.7125 41.6542C30.5083 41.7374 30.3454 41.8981 30.2595 42.1012C30.1736 42.3042 30.1717 42.5331 30.2542 42.7375C30.2542 43.0084 30.2541 43.1959 29.9833 43.3834C29.65 43.6334 29.2542 43.7938 28.8396 43.8396C28.2578 43.9504 27.6581 43.9218 27.0896 43.7563C26.5136 43.6148 25.9745 43.352 25.5083 42.9854C25.1542 42.7354 24.8833 42.5688 25.0083 42.3188C25.1662 42.0156 25.4135 41.7683 25.7166 41.6104L27.1333 41.1521C27.533 41.0881 27.9369 41.0533 28.3417 41.0479H29.6312C29.816 41.0781 30.0052 41.0339 30.1574 40.9249C30.3096 40.816 30.4126 40.6513 30.4437 40.4667C30.4618 40.3723 30.4611 40.2752 30.4415 40.1811C30.4219 40.087 30.384 39.9977 30.3297 39.9183C30.2755 39.8389 30.2061 39.771 30.1256 39.7185C30.0451 39.6661 29.9549 39.63 29.8604 39.6125L27.0896 39.1542C26.7367 39.1242 26.382 39.1242 26.0292 39.1542C25.6547 39.1836 25.2844 39.2535 24.925 39.3625C24.3349 39.5103 23.7921 39.8058 23.3478 40.2214C22.9035 40.6369 22.5723 41.1586 22.3854 41.7375C22.249 42.3966 22.3247 43.0818 22.6016 43.6952C22.8786 44.3086 23.3425 44.8186 23.9271 45.1521C24.7604 45.7021 25.7062 46.0563 26.6958 46.1938C27.6396 46.2875 28.5937 46.1667 29.4854 45.8396C30.3396 45.5167 31.0666 44.9334 31.5687 44.1729C31.6576 43.9785 31.7271 43.7771 31.7771 43.5688C33.9344 43.8562 36.1265 43.4319 38.0208 42.3604C39.7479 41.3594 41.1835 39.9245 42.1854 38.1979C43.0945 36.704 43.7354 35.0626 44.0791 33.3479H44.6625C45.093 33.2785 45.5166 33.1813 45.9333 33.0563C46.801 32.815 47.597 32.3666 48.2531 31.7497C48.9092 31.1328 49.4057 30.3658 49.7 29.5146C50.0768 28.3544 50.0985 27.1102 49.7625 25.9375ZM5.7104 30.85C5.41227 30.7486 5.12014 30.6304 4.8354 30.4959C4.34865 30.2583 3.92169 29.9142 3.58625 29.4889C3.25082 29.0637 3.01554 28.5683 2.8979 28.0396C2.75856 27.3528 2.75927 26.6449 2.89998 25.9584C3.0451 25.1045 3.3709 24.2914 3.85557 23.5735C4.34024 22.8557 4.97262 22.2496 5.7104 21.7959C5.68957 22.9361 5.73123 24.0736 5.8354 25.2084C6.04373 27.2584 6.43332 29.2875 7.00207 31.2667C6.87707 31.2667 6.79373 31.1209 6.6479 31.1209L5.7104 30.85ZM45.2666 31.1417C42.1208 32.6625 45.0583 29.1854 44.7041 22.5646C46.0189 23.5239 46.9076 24.9582 47.1812 26.5625C47.3187 27.25 47.3187 27.9584 47.1812 28.6459C47.0639 29.1883 46.8222 29.6962 46.4751 30.1293C46.1281 30.5624 45.6851 30.909 45.1812 31.1417H45.2666Z" fill="black"/>
<path fill-rule="evenodd" clip-rule="evenodd" d="M18.4104 21.9188C18.0337 21.9094 17.6587 21.9731 17.3062 22.1063C16.5146 22.4188 15.8062 22.9021 15.2229 23.523C15.0607 23.6259 14.9456 23.7886 14.9027 23.9759C14.8598 24.1631 14.8925 24.3597 14.9937 24.523C15.2854 25.0438 19.1604 24.523 19.9104 24.523C20.2423 24.5369 20.568 24.5924 20.8875 24.6896C21.0768 24.8001 21.3012 24.8336 21.5145 24.7832C21.7278 24.7328 21.9135 24.6023 22.0333 24.4188C22.1426 24.2327 22.1755 24.0115 22.125 23.8016C22.0745 23.5918 21.9445 23.4097 21.7625 23.2938C21.1392 22.6728 20.3631 22.2272 19.5125 22.0021C19.1516 21.913 18.7805 21.8848 18.4104 21.9188ZM33.5042 24.5209C33.6035 24.3551 33.633 24.1567 33.5861 23.9691C33.5393 23.7816 33.4198 23.6204 33.2542 23.5209C32.6805 22.8922 31.9667 22.4076 31.1708 22.1063C30.8183 21.9731 30.4434 21.9094 30.0667 21.9188C29.6896 21.898 29.3083 21.9396 28.9437 22.0438C28.0958 22.273 27.3208 22.7188 26.6937 23.3355C26.5155 23.455 26.3903 23.6387 26.3441 23.8482C26.2979 24.0578 26.3343 24.2771 26.4458 24.4605C26.562 24.6482 26.7479 24.7821 26.9627 24.8329C27.1775 24.8837 27.4037 24.8471 27.5917 24.7313C27.9097 24.6341 28.2361 24.5785 28.5708 24.5646C30.9208 24.3771 33.0667 25.2709 33.5042 24.5209Z" fill="black"/>
</svg>
